<svg width="23" height="27" viewBox="0 0 23 27" fill="none" xmlns="http://www.w3.org/2000/svg">
<path d="M22.478 3.3325C22.309 3.1645 22.11 3.08 21.88 3.08C21.7655 3.08 21.524 3.174 21.157 3.3595C20.7895 3.5455 20.3995 3.7525 19.989 3.9835C19.5775 4.213 19.0905 4.421 18.5285 4.607C17.967 4.7925 17.447 4.8865 16.9685 4.8865C16.5265 4.8865 16.1365 4.8025 15.8005 4.634C14.686 4.112 13.7165 3.7225 12.8935 3.4655C12.0705 3.209 11.1855 3.08 10.238 3.08C8.602 3.08 6.7385 3.612 4.6495 4.674C4.2185 4.889 3.9095 5.0555 3.7095 5.1775L3.511 3.722C3.9595 3.3325 4.249 2.765 4.249 2.1245C4.249 0.951 3.298 0 2.1245 0C0.951 0 0 0.951 0 2.1245C0 2.89 0.409 3.5555 1.016 3.9295L3.886 24.9745C3.9715 25.601 4.5075 26.0555 5.123 26.0555C5.179 26.0555 5.236 26.052 5.2935 26.0445C5.9775 25.9505 6.4565 25.321 6.363 24.637L5.2095 16.1785C7.3025 15.14 9.113 14.6165 10.636 14.6165C11.2825 14.6165 11.913 14.713 12.5275 14.908C13.1425 15.1035 13.654 15.3155 14.061 15.545C14.468 15.775 14.9485 15.988 15.501 16.182C16.0545 16.377 16.601 16.4745 17.1405 16.4745C18.5035 16.4745 20.136 15.961 22.0385 14.9345C22.2775 14.8105 22.4525 14.6885 22.563 14.569C22.6735 14.4495 22.729 14.2795 22.729 14.0585V3.93C22.729 3.7005 22.6455 3.501 22.478 3.3325Z" fill="#F0145A"/>
</svg>
